<svg width="44" height="44" viewBox="0 0 44 44" fill="none" xmlns="http://www.w3.org/2000/svg">
<path d="M33 1H3C2.46957 1 1.96086 1.21071 1.58579 1.58579C1.21071 1.96086 1 2.46957 1 3V23C1 23.5304 1.21071 24.0391 1.58579 24.4142C1.96086 24.7893 2.46957 25 3 25H5L13 33V25H33C33.5304 25 34.0391 24.7893 34.4142 24.4142C34.7893 24.0391 35 23.5304 35 23V3C35 2.46957 34.7893 1.96086 34.4142 1.58579C34.0391 1.21071 33.5304 1 33 1Z" stroke="#8FB4FF" stroke-linejoin="round"/>
<path d="M11 9C11 8.20888 11.2346 7.43552 11.6741 6.77772C12.1136 6.11992 12.7384 5.60723 13.4693 5.30448C14.2002 5.00173 15.0044 4.92252 15.7804 5.07686C16.5563 5.2312 17.269 5.61216 17.8284 6.17157C18.3878 6.73098 18.7688 7.44372 18.9231 8.21964C19.0775 8.99556 18.9983 9.79983 18.6955 10.5307C18.3928 11.2616 17.8801 11.8864 17.2223 12.3259C16.5645 12.7654 15.7911 13 15 13V15" stroke="#8FB4FF" stroke-linecap="round" stroke-linejoin="round"/>
<path d="M23 5.5V15" stroke="#8FB4FF" stroke-linecap="round" stroke-linejoin="round"/>
<path d="M19 25V35C19 35.5304 19.2107 36.0391 19.5858 36.4142C19.9609 36.7893 20.4696 37 21 37H32V43L38 37H41C41.5304 37 42.0391 36.7893 42.4142 36.4142C42.7893 36.0391 43 35.5304 43 35V21C43 20.4696 42.7893 19.9609 42.4142 19.5858C42.0391 19.2107 41.5304 19 41 19H35" stroke="#8FB4FF" stroke-linejoin="round"/>
<path d="M15 19.5C15.2761 19.5 15.5 19.2761 15.5 19C15.5 18.7239 15.2761 18.5 15 18.5C14.7239 18.5 14.5 18.7239 14.5 19C14.5 19.2761 14.7239 19.5 15 19.5Z" fill="#8FB4FF" stroke="#8FB4FF" stroke-linecap="round" stroke-linejoin="round"/>
<path d="M23 19.5C23.2761 19.5 23.5 19.2761 23.5 19C23.5 18.7239 23.2761 18.5 23 18.5C22.7239 18.5 22.5 18.7239 22.5 19C22.5 19.2761 22.7239 19.5 23 19.5Z" fill="#8FB4FF" stroke="#8FB4FF" stroke-linecap="round" stroke-linejoin="round"/>
</svg>
