<svg width="40" height="40" viewBox="0 0 40 40" fill="none" xmlns="http://www.w3.org/2000/svg">
<path d="M39 3H1V39H39V3Z" stroke="#8FB4FF" stroke-linecap="round" stroke-linejoin="round"/>
<path d="M5 1V5" stroke="#8FB4FF" stroke-linecap="round" stroke-linejoin="round"/>
<path d="M9 1V5" stroke="#8FB4FF" stroke-linecap="round" stroke-linejoin="round"/>
<path d="M35 1V5" stroke="#8FB4FF" stroke-linecap="round" stroke-linejoin="round"/>
<path d="M31 1V5" stroke="#8FB4FF" stroke-linecap="round" stroke-linejoin="round"/>
<path d="M1 11H39" stroke="#8FB4FF" stroke-linecap="round" stroke-linejoin="round"/>
<path d="M7 21H13" stroke="#8FB4FF" stroke-linecap="round" stroke-linejoin="round"/>
<path d="M7 25H13" stroke="#8FB4FF" stroke-linecap="round" stroke-linejoin="round"/>
<path d="M7 29H13" stroke="#8FB4FF" stroke-linecap="round" stroke-linejoin="round"/>
<path d="M7 33H13" stroke="#8FB4FF" stroke-linecap="round" stroke-linejoin="round"/>
<path d="M17 21H23" stroke="#8FB4FF" stroke-linecap="round" stroke-linejoin="round"/>
<path d="M17 25H23" stroke="#8FB4FF" stroke-linecap="round" stroke-linejoin="round"/>
<path d="M17 29H23" stroke="#8FB4FF" stroke-linecap="round" stroke-linejoin="round"/>
<path d="M17 33H23" stroke="#8FB4FF" stroke-linecap="round" stroke-linejoin="round"/>
<path d="M27 21H33" stroke="#8FB4FF" stroke-linecap="round" stroke-linejoin="round"/>
<path d="M7 17H13" stroke="#8FB4FF" stroke-linecap="round" stroke-linejoin="round"/>
<path d="M17 17H23" stroke="#8FB4FF" stroke-linecap="round" stroke-linejoin="round"/>
<path d="M27 17H33" stroke="#8FB4FF" stroke-linecap="round" stroke-linejoin="round"/>
<path d="M27 25H33" stroke="#8FB4FF" stroke-linecap="round" stroke-linejoin="round"/>
<path d="M27 29H33" stroke="#8FB4FF" stroke-linecap="round" stroke-linejoin="round"/>
<path d="M27 33H33" stroke="#8FB4FF" stroke-linecap="round" stroke-linejoin="round"/>
</svg>
