<svg width="44" height="37" viewBox="0 0 44 37" fill="none" xmlns="http://www.w3.org/2000/svg">
<path d="M12.8602 22H8.74023L12.0002 34.52C12.1174 34.9563 12.3789 35.3401 12.7421 35.6089C13.1052 35.8776 13.5487 36.0155 14.0002 36H14.5202C14.7876 35.9401 15.0399 35.8258 15.2613 35.6643C15.4827 35.5028 15.6685 35.2976 15.8073 35.0613C15.9461 34.825 16.0348 34.5627 16.068 34.2907C16.1012 34.0187 16.0781 33.7427 16.0002 33.48L12.8602 22Z" stroke="#8FB4FF" stroke-miterlimit="10"/>
<path d="M16 7.99995H7C6.46957 7.99995 5.96086 8.21067 5.58579 8.58574C5.21071 8.96081 5 9.46952 5 9.99995V20C5 20.5304 5.21071 21.0391 5.58579 21.4142C5.96086 21.7892 6.46957 22 7 22H16C22.2493 21.9945 28.2888 24.254 33 28.36V1.63995C28.2888 5.7459 22.2493 8.00539 16 7.99995V7.99995Z" stroke="#8FB4FF" stroke-miterlimit="10"/>
<path d="M3 10H5V20H3C2.46957 20 1.96086 19.7893 1.58579 19.4142C1.21071 19.0391 1 18.5304 1 18V12C1 11.4696 1.21071 10.9609 1.58579 10.5858C1.96086 10.2107 2.46957 10 3 10V10Z" stroke="#8FB4FF" stroke-miterlimit="10"/>
<path d="M15 8V22" stroke="#8FB4FF" stroke-miterlimit="10" stroke-linecap="round"/>
<path d="M37 15C36.9965 13.7622 36.6102 12.5556 35.8941 11.5459C35.178 10.5362 34.1671 9.77267 33 9.36005V20.64C34.1671 20.2274 35.178 19.4639 35.8941 18.4542C36.6102 17.4444 36.9965 16.2379 37 15V15Z" stroke="#8FB4FF" stroke-miterlimit="10"/>
<path d="M41 15H43" stroke="#8FB4FF" stroke-miterlimit="10" stroke-linecap="round"/>
<path d="M38.0801 7.92002L39.4801 6.52002" stroke="#8FB4FF" stroke-miterlimit="10" stroke-linecap="round"/>
<path d="M38.0801 22.08L39.4801 23.48" stroke="#8FB4FF" stroke-miterlimit="10" stroke-linecap="round"/>
</svg>
