<svg width="48" height="49" viewBox="0 0 48 49" fill="none" xmlns="http://www.w3.org/2000/svg">
<g clip-path="url(#clip0)">
<path d="M9 42.74C9 43.5675 9.32871 44.361 9.91383 44.9462C10.4989 45.5313 11.2925 45.86 12.12 45.86H23C23.5304 45.86 24.0391 45.6493 24.4142 45.2742C24.7893 44.8991 25 44.3904 25 43.86C25 43.3296 24.7893 42.8208 24.4142 42.4458C24.0391 42.0707 23.5304 41.86 23 41.86" stroke="#8FB4FF" stroke-linecap="round" stroke-linejoin="round"/>
<path d="M23 33.86H25C25.5304 33.86 26.0391 33.6493 26.4142 33.2742C26.7893 32.8991 27 32.3904 27 31.86C27 31.3296 26.7893 30.8208 26.4142 30.4458C26.0391 30.0707 25.5304 29.86 25 29.86H17V23.86C17 22.7991 16.5786 21.7817 15.8284 21.0316C15.0783 20.2814 14.0609 19.86 13 19.86V25.86L9 31.86" stroke="#8FB4FF" stroke-linecap="round" stroke-linejoin="round"/>
<path d="M25 37.86C25.5304 37.86 26.0391 38.0707 26.4142 38.4458C26.7893 38.8208 27 39.3296 27 39.86C27 40.3904 26.7893 40.8991 26.4142 41.2742C26.0391 41.6493 25.5304 41.86 25 41.86H23" stroke="#8FB4FF" stroke-linecap="round" stroke-linejoin="round"/>
<path d="M25 33.86C25.5304 33.86 26.0391 34.0707 26.4142 34.4458C26.7893 34.8208 27 35.3296 27 35.86C27 36.3904 26.7893 36.8991 26.4142 37.2742C26.0391 37.6493 25.5304 37.86 25 37.86H23" stroke="#8FB4FF" stroke-linecap="round" stroke-linejoin="round"/>
<path d="M7 29.86H5C3.89543 29.86 3 30.7554 3 31.86V43.86C3 44.9646 3.89543 45.86 5 45.86H7C8.10457 45.86 9 44.9646 9 43.86V31.86C9 30.7554 8.10457 29.86 7 29.86Z" stroke="#8FB4FF" stroke-linecap="round" stroke-linejoin="round"/>
<path d="M39 6.97999C39 6.15251 38.6713 5.35893 38.0862 4.77381C37.5011 4.1887 36.7075 3.85999 35.88 3.85999H25C24.4696 3.85999 23.9609 4.0707 23.5858 4.44577C23.2107 4.82084 23 5.32955 23 5.85999C23 6.39042 23.2107 6.89913 23.5858 7.2742C23.9609 7.64927 24.4696 7.85999 25 7.85999" stroke="#8FB4FF" stroke-linecap="round" stroke-linejoin="round"/>
<path d="M25 15.86H23C22.4696 15.86 21.9609 16.0707 21.5858 16.4458C21.2107 16.8208 21 17.3296 21 17.86C21 18.3904 21.2107 18.8991 21.5858 19.2742C21.9609 19.6493 22.4696 19.86 23 19.86H31V25.86C31 26.9209 31.4214 27.9383 32.1716 28.6884C32.9217 29.4386 33.9391 29.86 35 29.86V23.86L39 17.86" stroke="#8FB4FF" stroke-linecap="round" stroke-linejoin="round"/>
<path d="M23 11.86C22.4696 11.86 21.9609 11.6493 21.5858 11.2742C21.2107 10.8991 21 10.3904 21 9.85999C21 9.32955 21.2107 8.82084 21.5858 8.44577C21.9609 8.0707 22.4696 7.85999 23 7.85999H25" stroke="#8FB4FF" stroke-linecap="round" stroke-linejoin="round"/>
<path d="M23 15.86C22.4696 15.86 21.9609 15.6493 21.5858 15.2742C21.2107 14.8991 21 14.3904 21 13.86C21 13.3296 21.2107 12.8208 21.5858 12.4458C21.9609 12.0707 22.4696 11.86 23 11.86H25" stroke="#8FB4FF" stroke-linecap="round" stroke-linejoin="round"/>
<path d="M41 19.86H43C44.1046 19.86 45 18.9646 45 17.86V5.85999C45 4.75542 44.1046 3.85999 43 3.85999H41C39.8954 3.85999 39 4.75542 39 5.85999V17.86C39 18.9646 39.8954 19.86 41 19.86Z" stroke="#8FB4FF" stroke-linecap="round" stroke-linejoin="round"/>
</g>
<defs>
<clipPath id="clip0">
<rect width="48" height="48" fill="white" transform="translate(0 0.859985)"/>
</clipPath>
</defs>
</svg>
