<svg width="40" height="44" viewBox="0 0 40 44" fill="none" xmlns="http://www.w3.org/2000/svg">
<path d="M24.9994 37.5C25.0172 35.9137 25.385 34.3509 26.0764 32.9231C26.7679 31.4953 27.7659 30.2377 28.9994 29.24C30.2792 28.0684 31.2971 26.6396 31.9864 25.0473C32.6757 23.455 33.0209 21.735 32.9994 20C32.9994 16.5522 31.6297 13.2456 29.1917 10.8076C26.7538 8.36964 23.4472 7 19.9994 7C16.5515 7 13.2449 8.36964 10.807 10.8076C8.36899 13.2456 6.99935 16.5522 6.99935 20C6.97401 21.7355 7.31748 23.4567 8.00704 25.0496C8.6966 26.6425 9.71653 28.0708 10.9994 29.24C12.2175 30.2511 13.2048 31.5116 13.8948 32.9364C14.5848 34.3612 14.9614 35.9174 14.9994 37.5V37.5V41C14.9994 41.5304 15.2101 42.0391 15.5851 42.4142C15.9602 42.7893 16.4689 43 16.9994 43H22.9994C23.5298 43 24.0385 42.7893 24.4136 42.4142C24.7886 42.0391 24.9994 41.5304 24.9994 41V37.5Z" stroke="#8FB4FF" stroke-linecap="round" stroke-linejoin="round"/>
<path d="M3 20H1" stroke="#8FB4FF" stroke-linecap="round" stroke-linejoin="round"/>
<path d="M39 20H37" stroke="#8FB4FF" stroke-linecap="round" stroke-linejoin="round"/>
<path d="M5.27906 28.5L3.53906 29.5" stroke="#8FB4FF" stroke-linecap="round" stroke-linejoin="round"/>
<path d="M36.4607 10.5L34.7207 11.5" stroke="#8FB4FF" stroke-linecap="round" stroke-linejoin="round"/>
<path d="M29.5 3.54004L28.5 5.28004" stroke="#8FB4FF" stroke-linecap="round" stroke-linejoin="round"/>
<path d="M20 1V3" stroke="#8FB4FF" stroke-linecap="round" stroke-linejoin="round"/>
<path d="M10.5 3.54004L11.5 5.28004" stroke="#8FB4FF" stroke-linecap="round" stroke-linejoin="round"/>
<path d="M34.7207 28.5L36.4607 29.5" stroke="#8FB4FF" stroke-linecap="round" stroke-linejoin="round"/>
<path d="M3.53906 10.5L5.27906 11.5" stroke="#8FB4FF" stroke-linecap="round" stroke-linejoin="round"/>
<path d="M15 35H25" stroke="#8FB4FF" stroke-linecap="round" stroke-linejoin="round"/>
<path d="M15 39H25" stroke="#8FB4FF" stroke-linecap="round" stroke-linejoin="round"/>
</svg>
