<svg width="48" height="48" viewBox="0 0 48 48" fill="none" xmlns="http://www.w3.org/2000/svg">
<path d="M33 20C31.5019 22.0723 29.5542 23.7786 27.3028 24.9909C25.0513 26.2032 22.5547 26.89 20 27C17.4453 26.89 14.9487 26.2032 12.6972 24.9909C10.4458 23.7786 8.49806 22.0723 7 20C8.49806 17.9277 10.4458 16.2215 12.6972 15.0091C14.9487 13.7968 17.4453 13.11 20 13C22.5547 13.11 25.0513 13.7968 27.3028 15.0091C29.5542 16.2215 31.5019 17.9277 33 20Z" stroke="#9EBEFF" stroke-linecap="round" stroke-linejoin="round"/>
<path d="M20 27C23.866 27 27 23.866 27 20C27 16.134 23.866 13 20 13C16.134 13 13 16.134 13 20C13 23.866 16.134 27 20 27Z" stroke="#9EBEFF" stroke-linecap="round" stroke-linejoin="round"/>
<path d="M20 22C21.1046 22 22 21.1046 22 20C22 18.8954 21.1046 18 20 18C18.8954 18 18 18.8954 18 20C18 21.1046 18.8954 22 20 22Z" stroke="#9EBEFF" stroke-linecap="round" stroke-linejoin="round"/>
<path d="M20 37C29.3888 37 37 29.3888 37 20C37 10.6112 29.3888 3 20 3C10.6112 3 3 10.6112 3 20C3 29.3888 10.6112 37 20 37Z" stroke="#9EBEFF" stroke-linecap="round" stroke-linejoin="round"/>
<path d="M34 30L45 41L41 45L30 34" stroke="#9EBEFF" stroke-linecap="round" stroke-linejoin="round"/>
</svg>
