<svg width="96" height="96" viewBox="0 0 96 96" fill="none" xmlns="http://www.w3.org/2000/svg">
<path d="M58.44 36.0001C52.73 39.6701 44 42.0001 34.15 42.0001C23.27 42.0001 13.7 39.1401 8.15 34.8101L3 78.0001C3 86.8401 17 94.0001 34.18 94.0001C51.36 94.0001 65.35 86.8401 65.35 78.0001L60.45 37.1901L58.44 36.0001Z" fill="url(#paint0_radial_5011_6459)"/>
<path d="M89.5701 56L63.5901 41" stroke="#70A0FF" stroke-linecap="round" stroke-linejoin="round"/>
<path d="M67.05 33L93.03 48" stroke="#70A0FF" stroke-linecap="round" stroke-linejoin="round"/>
<path d="M93.5481 52.9457C94.4931 50.7249 94.2416 48.4916 92.9863 47.9575C91.7311 47.4233 89.9475 48.7907 89.0025 51.0115C88.0575 53.2323 88.3091 55.4656 89.5643 55.9997C90.8195 56.5338 92.6032 55.1665 93.5481 52.9457Z" stroke="#70A0FF" stroke-linecap="round" stroke-linejoin="round"/>
<path d="M64.17 41.24C63.31 41.09 62.72 40.19 62.72 38.78C62.7373 37.7137 63.0041 36.6663 63.4991 35.7216C63.994 34.7769 64.7032 33.9613 65.57 33.34C65.8224 33.1647 66.1144 33.0546 66.4198 33.0197C66.7252 32.9848 67.0345 33.0261 67.32 33.14" stroke="#70A0FF" stroke-linecap="round" stroke-linejoin="round"/>
<path d="M64.95 33.79L59.02 30.37" stroke="#70A0FF" stroke-linecap="round" stroke-linejoin="round"/>
<path d="M34.15 34C51.3702 34 65.33 26.8366 65.33 18C65.33 9.16344 51.3702 2 34.15 2C16.9297 2 2.96997 9.16344 2.96997 18C2.96997 26.8366 16.9297 34 34.15 34Z" stroke="#70A0FF" stroke-linecap="round" stroke-linejoin="round"/>
<path d="M34.1399 30C47.5328 30 58.3899 24.6274 58.3899 18C58.3899 11.3726 47.5328 6 34.1399 6C20.747 6 9.88989 11.3726 9.88989 18C9.88989 24.6274 20.747 30 34.1399 30Z" stroke="#70A0FF" stroke-linecap="round" stroke-linejoin="round"/>
<path d="M16.8201 20C16.8201 15.58 24.5801 12 34.1401 12" stroke="#70A0FF" stroke-linecap="round" stroke-linejoin="round"/>
<path d="M34.1399 8C46.8599 8 57.2799 12.84 58.2999 19C58.36 18.6701 58.3902 18.3354 58.3899 18C58.3899 11.37 47.5399 6 34.1399 6C20.7399 6 9.88989 11.37 9.88989 18C9.90122 18.3356 9.93799 18.6699 9.99989 19C10.9999 12.84 21.4299 8 34.1399 8Z" stroke="#70A0FF" stroke-linecap="round" stroke-linejoin="round"/>
<path d="M62.73 38.5L56.52 34.92" stroke="#70A0FF" stroke-linecap="round" stroke-linejoin="round"/>
<path d="M56.72 35.0001C56.26 34.8601 55.96 34.3401 55.96 33.5501C55.9692 32.9131 56.1278 32.2872 56.4231 31.7227C56.7184 31.1582 57.142 30.6709 57.66 30.3001C57.8167 30.1888 58.0001 30.1209 58.1915 30.1033C58.3829 30.0858 58.5756 30.1191 58.75 30.2001" stroke="#70A0FF" stroke-linecap="round" stroke-linejoin="round"/>
<path d="M58.44 36C52.73 39.67 44 42 34.15 42C16.93 42 3 34.84 3 26V18" stroke="#70A0FF" stroke-linecap="round" stroke-linejoin="round"/>
<path d="M65.3199 18V26C65.2511 28.4068 64.3092 30.7064 62.6699 32.47" stroke="#70A0FF" stroke-linecap="round" stroke-linejoin="round"/>
<defs>
<radialGradient id="paint0_radial_5011_6459" cx="0" cy="0" r="1" gradientUnits="userSpaceOnUse" gradientTransform="translate(34.78 6.25006) scale(128.45)">
<stop stop-color="#70A0FF" stop-opacity="0.4"/>
<stop offset="0.93" stop-color="#70A0FF" stop-opacity="0"/>
</radialGradient>
</defs>
</svg>
