<svg width="216" height="216" viewBox="0 0 216 216" fill="none" xmlns="http://www.w3.org/2000/svg">
<path d="M40.7106 102.938L108 141.75L87.5387 175.5L20.3172 136.688L40.7106 102.938Z" stroke="#8FB4FF" stroke-linecap="round" stroke-linejoin="round"/>
<path d="M108 64.125L40.7782 102.938L4.23538 110.531L71.4654 71.7188L108 64.125Z" stroke="#8FB4FF" stroke-linecap="round" stroke-linejoin="round"/>
<path d="M108.025 64.125L175.255 102.938L211.79 110.531L144.56 71.7188L108.025 64.125Z" stroke="#8FB4FF" stroke-linecap="round" stroke-linejoin="round"/>
<path d="M108 212.625L40.7781 173.812V148.5" stroke="#8FB4FF" stroke-linecap="round" stroke-linejoin="round"/>
<path d="M175.255 102.938L108.329 141.75L128.461 175.5L195.766 136.645L175.255 102.938Z" stroke="#8FB4FF" stroke-linecap="round" stroke-linejoin="round"/>
<path d="M108 64.125V212.625L175.222 173.812V148.5" stroke="#8FB4FF" stroke-linecap="round" stroke-linejoin="round"/>
<path d="M40.7785 102.938L108 141.75V1.6875L18.8494 53.1562L40.7785 102.938Z" fill="url(#paint0_linear_4627_34382)"/>
<path d="M175.222 102.938L108 141.75V1.6875L197.151 53.1562L175.222 102.938Z" fill="url(#paint1_linear_4627_34382)"/>
<path d="M134.308 40.4833C141.764 40.4833 147.808 34.4391 147.808 26.9833C147.808 19.5274 141.764 13.4833 134.308 13.4833C126.852 13.4833 120.808 19.5274 120.808 26.9833C120.808 34.4391 126.852 40.4833 134.308 40.4833Z" fill="url(#paint2_radial_4627_34382)"/>
<path d="M134.308 30.3583C136.172 30.3583 137.683 28.8472 137.683 26.9833C137.683 25.1193 136.172 23.6083 134.308 23.6083C132.444 23.6083 130.933 25.1193 130.933 26.9833C130.933 28.8472 132.444 30.3583 134.308 30.3583Z" fill="#8FB4FF"/>
<path d="M157.5 72C164.956 72 171 65.9558 171 58.5C171 51.0442 164.956 45 157.5 45C150.044 45 144 51.0442 144 58.5C144 65.9558 150.044 72 157.5 72Z" fill="url(#paint3_radial_4627_34382)"/>
<path d="M157.5 61.875C159.364 61.875 160.875 60.364 160.875 58.5C160.875 56.636 159.364 55.125 157.5 55.125C155.636 55.125 154.125 56.636 154.125 58.5C154.125 60.364 155.636 61.875 157.5 61.875Z" fill="#8FB4FF"/>
<path d="M123.75 99C131.206 99 137.25 92.9558 137.25 85.5C137.25 78.0442 131.206 72 123.75 72C116.294 72 110.25 78.0442 110.25 85.5C110.25 92.9558 116.294 99 123.75 99Z" fill="url(#paint4_radial_4627_34382)"/>
<path d="M123.75 88.875C125.614 88.875 127.125 87.364 127.125 85.5C127.125 83.636 125.614 82.125 123.75 82.125C121.886 82.125 120.375 83.636 120.375 85.5C120.375 87.364 121.886 88.875 123.75 88.875Z" fill="#8FB4FF"/>
<path d="M139.5 121.5C146.956 121.5 153 115.456 153 108C153 100.544 146.956 94.5 139.5 94.5C132.044 94.5 126 100.544 126 108C126 115.456 132.044 121.5 139.5 121.5Z" fill="url(#paint5_radial_4627_34382)"/>
<path d="M139.5 111.375C141.364 111.375 142.875 109.864 142.875 108C142.875 106.136 141.364 104.625 139.5 104.625C137.636 104.625 136.125 106.136 136.125 108C136.125 109.864 137.636 111.375 139.5 111.375Z" fill="#8FB4FF"/>
<path d="M117 121.5C124.456 121.5 130.5 115.456 130.5 108C130.5 100.544 124.456 94.5 117 94.5C109.544 94.5 103.5 100.544 103.5 108C103.5 115.456 109.544 121.5 117 121.5Z" fill="url(#paint6_radial_4627_34382)"/>
<path d="M117 111.375C118.864 111.375 120.375 109.864 120.375 108C120.375 106.136 118.864 104.625 117 104.625C115.136 104.625 113.625 106.136 113.625 108C113.625 109.864 115.136 111.375 117 111.375Z" fill="#8FB4FF"/>
<path d="M83.2502 117C90.706 117 96.7502 110.956 96.7502 103.5C96.7502 96.0442 90.706 90 83.2502 90C75.7943 90 69.7502 96.0442 69.7502 103.5C69.7502 110.956 75.7943 117 83.2502 117Z" fill="url(#paint7_radial_4627_34382)"/>
<path d="M83.2502 106.875C85.1141 106.875 86.6252 105.364 86.6252 103.5C86.6252 101.636 85.1141 100.125 83.2502 100.125C81.3862 100.125 79.8752 101.636 79.8752 103.5C79.8752 105.364 81.3862 106.875 83.2502 106.875Z" fill="#8FB4FF"/>
<path d="M101.25 92.25C108.706 92.25 114.75 86.2058 114.75 78.75C114.75 71.2942 108.706 65.25 101.25 65.25C93.7943 65.25 87.7502 71.2942 87.7502 78.75C87.7502 86.2058 93.7943 92.25 101.25 92.25Z" fill="url(#paint8_radial_4627_34382)"/>
<path d="M101.25 82.125C103.114 82.125 104.625 80.614 104.625 78.75C104.625 76.886 103.114 75.375 101.25 75.375C99.3862 75.375 97.8752 76.886 97.8752 78.75C97.8752 80.614 99.3862 82.125 101.25 82.125Z" fill="#8FB4FF"/>
<path d="M56.2502 81C63.706 81 69.7502 74.9558 69.7502 67.5C69.7502 60.0442 63.706 54 56.2502 54C48.7943 54 42.7502 60.0442 42.7502 67.5C42.7502 74.9558 48.7943 81 56.2502 81Z" fill="url(#paint9_radial_4627_34382)"/>
<path d="M56.2502 70.875C58.1141 70.875 59.6251 69.364 59.6251 67.5C59.6251 65.636 58.1141 64.125 56.2502 64.125C54.3862 64.125 52.8752 65.636 52.8752 67.5C52.8752 69.364 54.3862 70.875 56.2502 70.875Z" fill="#8FB4FF"/>
<path d="M92.2502 63C99.706 63 105.75 56.9558 105.75 49.5C105.75 42.0442 99.706 36 92.2502 36C84.7943 36 78.7502 42.0442 78.7502 49.5C78.7502 56.9558 84.7943 63 92.2502 63Z" fill="url(#paint10_radial_4627_34382)"/>
<path d="M92.2502 52.875C94.1141 52.875 95.6252 51.364 95.6252 49.5C95.6252 47.636 94.1141 46.125 92.2502 46.125C90.3862 46.125 88.8752 47.636 88.8752 49.5C88.8752 51.364 90.3862 52.875 92.2502 52.875Z" fill="#8FB4FF"/>
<path d="M92.2502 31.5C99.706 31.5 105.75 25.4558 105.75 18C105.75 10.5442 99.706 4.5 92.2502 4.5C84.7943 4.5 78.7502 10.5442 78.7502 18C78.7502 25.4558 84.7943 31.5 92.2502 31.5Z" fill="url(#paint11_radial_4627_34382)"/>
<path d="M92.2502 21.375C94.1141 21.375 95.6252 19.864 95.6252 18C95.6252 16.136 94.1141 14.625 92.2502 14.625C90.3862 14.625 88.8752 16.136 88.8752 18C88.8752 19.864 90.3862 21.375 92.2502 21.375Z" fill="#8FB4FF"/>
<defs>
<linearGradient id="paint0_linear_4627_34382" x1="121.517" y1="133.945" x2="60.8682" y2="28.8984" gradientUnits="userSpaceOnUse">
<stop stop-color="#8FB4FF"/>
<stop offset="0.16" stop-color="#8FB4FF" stop-opacity="0.76"/>
<stop offset="0.32" stop-color="#8FB4FF" stop-opacity="0.53"/>
<stop offset="0.49" stop-color="#8FB4FF" stop-opacity="0.34"/>
<stop offset="0.64" stop-color="#8FB4FF" stop-opacity="0.19"/>
<stop offset="0.78" stop-color="#8FB4FF" stop-opacity="0.09"/>
<stop offset="0.9" stop-color="#8FB4FF" stop-opacity="0.02"/>
<stop offset="1" stop-color="#8FB4FF" stop-opacity="0"/>
</linearGradient>
<linearGradient id="paint1_linear_4627_34382" x1="94.4834" y1="133.945" x2="155.132" y2="28.8984" gradientUnits="userSpaceOnUse">
<stop stop-color="#8FB4FF"/>
<stop offset="0.16" stop-color="#8FB4FF" stop-opacity="0.76"/>
<stop offset="0.32" stop-color="#8FB4FF" stop-opacity="0.53"/>
<stop offset="0.49" stop-color="#8FB4FF" stop-opacity="0.34"/>
<stop offset="0.64" stop-color="#8FB4FF" stop-opacity="0.19"/>
<stop offset="0.78" stop-color="#8FB4FF" stop-opacity="0.09"/>
<stop offset="0.9" stop-color="#8FB4FF" stop-opacity="0.02"/>
<stop offset="1" stop-color="#8FB4FF" stop-opacity="0"/>
</linearGradient>
<radialGradient id="paint2_radial_4627_34382" cx="0" cy="0" r="1" gradientUnits="userSpaceOnUse" gradientTransform="translate(134.122 26.9765) scale(13.4797)">
<stop offset="0.2" stop-color="#8FB4FF" stop-opacity="0.7"/>
<stop offset="0.27" stop-color="#8FB4FF" stop-opacity="0.58"/>
<stop offset="0.39" stop-color="#8FB4FF" stop-opacity="0.41"/>
<stop offset="0.52" stop-color="#8FB4FF" stop-opacity="0.26"/>
<stop offset="0.64" stop-color="#8FB4FF" stop-opacity="0.15"/>
<stop offset="0.76" stop-color="#8FB4FF" stop-opacity="0.07"/>
<stop offset="0.88" stop-color="#8FB4FF" stop-opacity="0.02"/>
<stop offset="1" stop-color="#8FB4FF" stop-opacity="0"/>
</radialGradient>
<radialGradient id="paint3_radial_4627_34382" cx="0" cy="0" r="1" gradientUnits="userSpaceOnUse" gradientTransform="translate(157.315 58.4932) scale(13.4797)">
<stop offset="0.2" stop-color="#8FB4FF" stop-opacity="0.7"/>
<stop offset="0.27" stop-color="#8FB4FF" stop-opacity="0.58"/>
<stop offset="0.39" stop-color="#8FB4FF" stop-opacity="0.41"/>
<stop offset="0.52" stop-color="#8FB4FF" stop-opacity="0.26"/>
<stop offset="0.64" stop-color="#8FB4FF" stop-opacity="0.15"/>
<stop offset="0.76" stop-color="#8FB4FF" stop-opacity="0.07"/>
<stop offset="0.88" stop-color="#8FB4FF" stop-opacity="0.02"/>
<stop offset="1" stop-color="#8FB4FF" stop-opacity="0"/>
</radialGradient>
<radialGradient id="paint4_radial_4627_34382" cx="0" cy="0" r="1" gradientUnits="userSpaceOnUse" gradientTransform="translate(123.565 85.4932) scale(13.4797)">
<stop offset="0.2" stop-color="#8FB4FF" stop-opacity="0.7"/>
<stop offset="0.27" stop-color="#8FB4FF" stop-opacity="0.58"/>
<stop offset="0.39" stop-color="#8FB4FF" stop-opacity="0.41"/>
<stop offset="0.52" stop-color="#8FB4FF" stop-opacity="0.26"/>
<stop offset="0.64" stop-color="#8FB4FF" stop-opacity="0.15"/>
<stop offset="0.76" stop-color="#8FB4FF" stop-opacity="0.07"/>
<stop offset="0.88" stop-color="#8FB4FF" stop-opacity="0.02"/>
<stop offset="1" stop-color="#8FB4FF" stop-opacity="0"/>
</radialGradient>
<radialGradient id="paint5_radial_4627_34382" cx="0" cy="0" r="1" gradientUnits="userSpaceOnUse" gradientTransform="translate(139.315 107.993) scale(13.4797)">
<stop offset="0.2" stop-color="#8FB4FF" stop-opacity="0.7"/>
<stop offset="0.27" stop-color="#8FB4FF" stop-opacity="0.58"/>
<stop offset="0.39" stop-color="#8FB4FF" stop-opacity="0.41"/>
<stop offset="0.52" stop-color="#8FB4FF" stop-opacity="0.26"/>
<stop offset="0.64" stop-color="#8FB4FF" stop-opacity="0.15"/>
<stop offset="0.76" stop-color="#8FB4FF" stop-opacity="0.07"/>
<stop offset="0.88" stop-color="#8FB4FF" stop-opacity="0.02"/>
<stop offset="1" stop-color="#8FB4FF" stop-opacity="0"/>
</radialGradient>
<radialGradient id="paint6_radial_4627_34382" cx="0" cy="0" r="1" gradientUnits="userSpaceOnUse" gradientTransform="translate(116.815 107.993) scale(13.4797)">
<stop offset="0.2" stop-color="#8FB4FF" stop-opacity="0.7"/>
<stop offset="0.27" stop-color="#8FB4FF" stop-opacity="0.58"/>
<stop offset="0.39" stop-color="#8FB4FF" stop-opacity="0.41"/>
<stop offset="0.52" stop-color="#8FB4FF" stop-opacity="0.26"/>
<stop offset="0.64" stop-color="#8FB4FF" stop-opacity="0.15"/>
<stop offset="0.76" stop-color="#8FB4FF" stop-opacity="0.07"/>
<stop offset="0.88" stop-color="#8FB4FF" stop-opacity="0.02"/>
<stop offset="1" stop-color="#8FB4FF" stop-opacity="0"/>
</radialGradient>
<radialGradient id="paint7_radial_4627_34382" cx="0" cy="0" r="1" gradientUnits="userSpaceOnUse" gradientTransform="translate(83.0645 103.493) scale(13.4797)">
<stop offset="0.2" stop-color="#8FB4FF" stop-opacity="0.7"/>
<stop offset="0.27" stop-color="#8FB4FF" stop-opacity="0.58"/>
<stop offset="0.39" stop-color="#8FB4FF" stop-opacity="0.41"/>
<stop offset="0.52" stop-color="#8FB4FF" stop-opacity="0.26"/>
<stop offset="0.64" stop-color="#8FB4FF" stop-opacity="0.15"/>
<stop offset="0.76" stop-color="#8FB4FF" stop-opacity="0.07"/>
<stop offset="0.88" stop-color="#8FB4FF" stop-opacity="0.02"/>
<stop offset="1" stop-color="#8FB4FF" stop-opacity="0"/>
</radialGradient>
<radialGradient id="paint8_radial_4627_34382" cx="0" cy="0" r="1" gradientUnits="userSpaceOnUse" gradientTransform="translate(101.065 78.7432) scale(13.4797)">
<stop offset="0.2" stop-color="#8FB4FF" stop-opacity="0.7"/>
<stop offset="0.27" stop-color="#8FB4FF" stop-opacity="0.58"/>
<stop offset="0.39" stop-color="#8FB4FF" stop-opacity="0.41"/>
<stop offset="0.52" stop-color="#8FB4FF" stop-opacity="0.26"/>
<stop offset="0.64" stop-color="#8FB4FF" stop-opacity="0.15"/>
<stop offset="0.76" stop-color="#8FB4FF" stop-opacity="0.07"/>
<stop offset="0.88" stop-color="#8FB4FF" stop-opacity="0.02"/>
<stop offset="1" stop-color="#8FB4FF" stop-opacity="0"/>
</radialGradient>
<radialGradient id="paint9_radial_4627_34382" cx="0" cy="0" r="1" gradientUnits="userSpaceOnUse" gradientTransform="translate(56.0645 67.4932) scale(13.4797)">
<stop offset="0.2" stop-color="#8FB4FF" stop-opacity="0.7"/>
<stop offset="0.27" stop-color="#8FB4FF" stop-opacity="0.58"/>
<stop offset="0.39" stop-color="#8FB4FF" stop-opacity="0.41"/>
<stop offset="0.52" stop-color="#8FB4FF" stop-opacity="0.26"/>
<stop offset="0.64" stop-color="#8FB4FF" stop-opacity="0.15"/>
<stop offset="0.76" stop-color="#8FB4FF" stop-opacity="0.07"/>
<stop offset="0.88" stop-color="#8FB4FF" stop-opacity="0.02"/>
<stop offset="1" stop-color="#8FB4FF" stop-opacity="0"/>
</radialGradient>
<radialGradient id="paint10_radial_4627_34382" cx="0" cy="0" r="1" gradientUnits="userSpaceOnUse" gradientTransform="translate(92.0645 49.4932) scale(13.4797)">
<stop offset="0.2" stop-color="#8FB4FF" stop-opacity="0.7"/>
<stop offset="0.27" stop-color="#8FB4FF" stop-opacity="0.58"/>
<stop offset="0.39" stop-color="#8FB4FF" stop-opacity="0.41"/>
<stop offset="0.52" stop-color="#8FB4FF" stop-opacity="0.26"/>
<stop offset="0.64" stop-color="#8FB4FF" stop-opacity="0.15"/>
<stop offset="0.76" stop-color="#8FB4FF" stop-opacity="0.07"/>
<stop offset="0.88" stop-color="#8FB4FF" stop-opacity="0.02"/>
<stop offset="1" stop-color="#8FB4FF" stop-opacity="0"/>
</radialGradient>
<radialGradient id="paint11_radial_4627_34382" cx="0" cy="0" r="1" gradientUnits="userSpaceOnUse" gradientTransform="translate(92.0645 17.9932) scale(13.4797)">
<stop offset="0.2" stop-color="#8FB4FF" stop-opacity="0.7"/>
<stop offset="0.27" stop-color="#8FB4FF" stop-opacity="0.58"/>
<stop offset="0.39" stop-color="#8FB4FF" stop-opacity="0.41"/>
<stop offset="0.52" stop-color="#8FB4FF" stop-opacity="0.26"/>
<stop offset="0.64" stop-color="#8FB4FF" stop-opacity="0.15"/>
<stop offset="0.76" stop-color="#8FB4FF" stop-opacity="0.07"/>
<stop offset="0.88" stop-color="#8FB4FF" stop-opacity="0.02"/>
<stop offset="1" stop-color="#8FB4FF" stop-opacity="0"/>
</radialGradient>
</defs>
</svg>
