<svg width="144" height="144" viewBox="0 0 144 144" fill="none" xmlns="http://www.w3.org/2000/svg">
<g opacity="0.4">
<path d="M70.4484 107.529V128.866C70.4484 133.584 73.3064 135.753 76.842 133.708L117.384 110.301V124.53L128.016 104.142L131.219 102.294C134.754 100.249 137.624 94.7792 137.624 90.061V50.2333C137.624 45.5274 134.754 43.3592 131.219 45.3919L106.679 59.5588" stroke="#8FB4FF" stroke-linecap="round" stroke-linejoin="round"/>
<path d="M106.804 116.41L117.386 124.528V110.3L106.804 116.41Z" stroke="#8FB4FF" stroke-linecap="round" stroke-linejoin="round"/>
<path d="M57.6493 114.92V119.195C57.6493 121.658 58.4008 123.334 59.5957 124.196L72.2474 133.756C71.6034 133.117 71.1083 132.345 70.7974 131.493C70.4865 130.641 70.3674 129.731 70.4488 128.828V107.528" stroke="#8FB4FF" stroke-linecap="round" stroke-linejoin="round"/>
<path d="M106.717 59.5584L131.257 45.3914C131.897 44.9231 132.663 44.6575 133.456 44.629C134.249 44.6004 135.032 44.8102 135.704 45.2312L135.544 45.108L135.384 44.9849L135.223 44.874L135.076 44.7508L134.915 44.6276L134.755 44.5167L134.595 44.3935L134.435 44.2703L134.275 44.1595L134.127 44.0363L133.967 43.9131L133.807 43.7899L133.647 43.679L133.486 43.5558L133.326 43.4326L133.179 43.3218L133.018 43.1986L132.858 43.0754L132.698 42.9645L132.538 42.8413L132.378 42.7181L132.23 42.5949L132.07 42.4841L131.91 42.3609L131.749 42.2377L131.589 42.1268L131.429 42.0036L131.281 41.8804L131.121 41.7696L130.961 41.6464L130.801 41.5232L130.641 41.4L130.481 41.2891L130.333 41.1659L130.173 41.0427L130.012 40.9319L129.852 40.8087L129.692 40.6855L129.532 40.5746L129.384 40.4514L129.224 40.3282L129.064 40.2174L128.904 40.0942L128.744 39.971L128.583 39.8478L128.436 39.7369L128.276 39.6137L128.115 39.4905L127.955 39.3797L127.795 39.2565L127.647 39.1333L127.487 39.0224L127.327 38.8992L127.167 38.776L127.007 38.6528L126.846 38.542L126.699 38.4188L126.539 38.2956L126.378 38.1847L126.218 38.0615L126.058 37.9383L125.898 37.8275L125.75 37.7043L125.59 37.5811L125.43 37.4579L125.27 37.347L125.109 37.2238L124.949 37.1006L124.802 36.9898L124.641 36.8666L124.481 36.7434L124.321 36.6325L124.161 36.5093L124.001 36.3861L123.853 36.2629L123.693 36.1521L123.533 36.0289L123.373 35.9057L123.212 35.7948L123.052 35.6716C122.385 35.1841 121.581 34.9213 120.755 34.9213C119.929 34.9213 119.124 35.1841 118.457 35.6716L106.803 42.4471" stroke="#8FB4FF" stroke-linecap="round" stroke-linejoin="round"/>
</g>
<path d="M33.1604 130.516L46.9824 141V121.08L100.324 90.2821C103.86 88.2495 106.718 82.7675 106.718 78.0492V18.3139C106.718 13.5957 103.86 11.4275 100.324 13.4725L26.7052 55.998C23.1696 58.043 20.2992 63.5127 20.2992 68.2309V129.395C20.2992 134.113 23.1696 136.269 26.7052 134.237L33.1604 130.516Z" stroke="#8FB4FF" stroke-linecap="round" stroke-linejoin="round"/>
<path d="M34.1714 70.1525L92.8473 36.275" stroke="#8FB4FF" stroke-linecap="round" stroke-linejoin="round"/>
<path d="M34.1714 80.1064L92.8473 46.2288" stroke="#8FB4FF" stroke-linecap="round" stroke-linejoin="round"/>
<path d="M34.1714 90.0721L92.8473 56.1946" stroke="#8FB4FF" stroke-linecap="round" stroke-linejoin="round"/>
<path d="M34.1714 100.026L92.8473 66.1484" stroke="#8FB4FF" stroke-linecap="round" stroke-linejoin="round"/>
<path d="M34.1714 109.98L83.2507 81.6461" stroke="#8FB4FF" stroke-linecap="round" stroke-linejoin="round"/>
<path d="M20.2997 68.2062C20.2997 63.488 23.17 58.0183 26.7056 55.9733L100.325 13.4724C100.962 13.0048 101.725 12.7386 102.516 12.7079C103.306 12.6771 104.087 12.8833 104.759 13.2999L104.612 13.1891L104.451 13.0659L104.291 12.9427L104.131 12.8318L103.971 12.7086L103.811 12.5854L103.663 12.4745L103.503 12.3514L103.343 12.2282L103.183 12.105L103.022 11.9941L102.862 11.8709L102.714 11.7477L102.554 11.6492L102.394 11.526L102.234 11.4028L102.074 11.2919L101.914 11.1687L101.766 11.0455L101.606 10.9223L101.446 10.8115L101.285 10.6883L101.125 10.5651L100.916 10.4173L100.768 10.2941L100.608 10.1709L100.448 10.06L100.288 9.93681L100.127 9.81362L99.9673 9.69043L99.8195 9.57956L99.6593 9.45637L99.4992 9.33318L99.339 9.22231L99.1789 9.09911L99.0311 8.97592L98.8709 8.86505L98.7108 8.74186L98.5506 8.61867L98.3905 8.49548L98.2303 8.38461L98.0825 8.26141L97.9223 8.13822L97.7622 8.02735L97.602 7.90416L97.4419 7.78097L97.2818 7.6701L97.1339 7.54691L96.9738 7.42371L96.8136 7.30052L96.6535 7.18965L96.4933 7.06646L96.3332 6.94327L96.1854 6.8324L96.0252 6.70921L95.8651 6.58602L95.7049 6.47514L95.5448 6.35195L95.3846 6.22876L95.2368 6.10557L95.0766 5.9947L94.9165 5.87151L94.7563 5.74832L94.5962 5.63745L94.436 5.51425L94.2882 5.39106L94.1281 5.28019L93.9679 5.157L93.8078 5.03381L93.6476 4.91062L93.5244 4.82438L93.3766 4.70119L93.2164 4.578L93.0563 4.46713L92.8961 4.34394L92.736 4.22075L92.5759 4.10987L92.428 3.98669L92.2679 3.86349L92.1077 3.7403C91.4361 3.25889 90.6304 3 89.8041 3C88.9777 3 88.1721 3.25889 87.5004 3.7403L13.9061 46.2905C10.3705 48.3355 7.50012 53.8051 7.50012 58.5234V119.688C7.50012 122.152 8.25159 123.839 9.45886 124.702L9.61901 124.812L9.77916 124.936L9.9393 125.059L10.0871 125.17L10.2473 125.293L10.4074 125.416L10.5676 125.527L10.7277 125.65L10.8879 125.773L11.0357 125.897L11.1959 126.007L11.356 126.131L11.5162 126.254L11.6763 126.365L11.8364 126.488L11.9843 126.611L12.1444 126.722L12.3046 126.845L12.4647 126.968L12.6249 127.092L12.785 127.202L12.9328 127.326L13.093 127.449L13.2531 127.56L13.4133 127.683L13.5734 127.806L13.7336 127.917L13.8814 128.04L14.0416 128.163L14.2017 128.286L14.3619 128.397L14.522 128.521L14.6822 128.644L14.83 128.755L14.9901 128.878L15.1503 129.001L15.3104 129.112L15.4706 129.235L15.6307 129.358L15.7786 129.481L15.9387 129.592L16.0989 129.715L16.259 129.839L16.4192 129.95L16.567 130.073L16.7271 130.196L16.8873 130.307L17.0474 130.43L17.2076 130.553L17.3677 130.676L17.5156 130.787L17.6757 130.91L17.8358 131.034L17.996 131.144L18.1561 131.268L18.3163 131.391L18.4641 131.502L18.6243 131.625L18.7844 131.748L18.9446 131.871L19.1047 131.982L19.2649 132.105L19.4127 132.229L19.6098 132.376L19.77 132.5L19.9301 132.623L20.0902 132.734L20.2504 132.857L20.3982 132.98L20.5584 133.103L20.7185 133.214L20.8787 133.337L21.0388 133.46L21.199 133.571L21.3468 133.695L21.5069 133.818L21.6671 133.929L21.8272 134.052L21.9874 134.175L22.1475 134.298C21.497 133.664 20.9968 132.892 20.6834 132.04C20.37 131.187 20.2516 130.275 20.3366 129.371L20.2997 68.2062Z" stroke="#8FB4FF" stroke-linecap="round" stroke-linejoin="round"/>
</svg>
