<svg width="96" height="96" viewBox="0 0 96 96" fill="none" xmlns="http://www.w3.org/2000/svg">
<g opacity="0.4">
<path d="M84.37 49C91.3 53 82.64 58 84.37 63C77.44 59 86.11 54 84.37 49Z" stroke="#8FB4FF" stroke-linecap="round" stroke-linejoin="round"/>
</g>
<path d="M8.16 93V43L73.98 5V55L8.16 93Z" stroke="#8FB4FF" stroke-linecap="round" stroke-linejoin="round"/>
<path d="M8.16 93L2.97 90V40L8.16 43" stroke="#8FB4FF" stroke-linecap="round" stroke-linejoin="round"/>
<path d="M2.97 40L68.78 2L73.98 5" stroke="#8FB4FF" stroke-linecap="round" stroke-linejoin="round"/>
<path d="M16.82 48V80L51.46 60V28L16.82 48Z" stroke="#8FB4FF" stroke-linecap="round" stroke-linejoin="round"/>
<path d="M32.41 49V61L39.34 51L32.41 49Z" stroke="#8FB4FF" stroke-linecap="round" stroke-linejoin="round"/>
<path d="M54.93 26L67.05 19" stroke="#8FB4FF" stroke-linecap="round" stroke-linejoin="round"/>
<path d="M54.93 30L67.05 23" stroke="#8FB4FF" stroke-linecap="round" stroke-linejoin="round"/>
<path d="M54.93 34L67.05 27" stroke="#8FB4FF" stroke-linecap="round" stroke-linejoin="round"/>
<path d="M54.93 38L67.05 31" stroke="#8FB4FF" stroke-linecap="round" stroke-linejoin="round"/>
<path d="M54.93 42L63.59 37" stroke="#8FB4FF" stroke-linecap="round" stroke-linejoin="round"/>
<path d="M28.95 81V87L39.34 93L60.12 81L49.73 75V69" stroke="#8FB4FF" stroke-linecap="round" stroke-linejoin="round"/>
<path d="M49.73 75L28.95 87" stroke="#8FB4FF" stroke-linecap="round" stroke-linejoin="round"/>
<path d="M84.37 73C88.1808 73 91.27 71.2091 91.27 69C91.27 66.7909 88.1808 65 84.37 65C80.5592 65 77.47 66.7909 77.47 69C77.47 71.2091 80.5592 73 84.37 73Z" stroke="#8FB4FF" stroke-linecap="round" stroke-linejoin="round"/>
<path d="M89.53 80C89.53 81.66 87.22 83 84.36 83C81.5 83 79.18 81.66 79.18 80" stroke="#8FB4FF" stroke-linecap="round" stroke-linejoin="round"/>
<path d="M77.47 69L79.18 80" stroke="#8FB4FF" stroke-linecap="round" stroke-linejoin="round"/>
<path d="M91.27 69L89.53 80" stroke="#8FB4FF" stroke-linecap="round" stroke-linejoin="round"/>
<path d="M91 71.35C92.58 69.98 94.1 70.35 94.31 72.12C94.47 73.49 93.31 75.98 90.03 77.5" stroke="#8FB4FF" stroke-linecap="round" stroke-linejoin="round"/>
</svg>
